<?xml version="1.0" encoding="UTF-8" standalone="no"?>
<!DOCTYPE svg PUBLIC "-//W3C//DTD SVG 1.1//EN"
 "http://www.w3.org/Graphics/SVG/1.1/DTD/svg11.dtd">
<!-- Generated by graphviz version 15.0.0 (20260523.1842)
 -->
<!-- Title: wiring Pages: 1 -->
<svg width="347pt" height="1057pt"
 viewBox="0.00 0.00 347.00 1057.00" xmlns="http://www.w3.org/2000/svg" xmlns:xlink="http://www.w3.org/1999/xlink">
<g id="graph0" class="graph" transform="scale(1 1) rotate(0) translate(4 1053.28)">
<title>wiring</title>
<polygon fill="white" stroke="none" points="-4,4 -4,-1053.28 342.75,-1053.28 342.75,4 -4,4"/>
<!-- mcu -->
<g id="node1" class="node">
<title>mcu</title>
<polygon fill="lightgrey" stroke="none" points="9,-803.38 9,-820.12 157,-820.12 157,-803.38 9,-803.38"/>
<text xml:space="preserve" text-anchor="start" x="53" y="-809.62" font-family="monospace" font-weight="bold" font-size="10.00">MSPM0G3507</text>
<text xml:space="preserve" text-anchor="start" x="11" y="-791.62" font-family="monospace" font-size="10.00">PA0:PWM (motorL_pwm)</text>
<text xml:space="preserve" text-anchor="start" x="11" y="-774.88" font-family="monospace" font-size="10.00">PA4:GPIO (motorL_in1)</text>
<text xml:space="preserve" text-anchor="start" x="11" y="-758.12" font-family="monospace" font-size="10.00">PA5:GPIO (motorL_in2)</text>
<text xml:space="preserve" text-anchor="start" x="11" y="-741.38" font-family="monospace" font-size="10.00">PA1:PWM (motorR_pwm)</text>
<text xml:space="preserve" text-anchor="start" x="11" y="-724.62" font-family="monospace" font-size="10.00">PA6:GPIO (motorR_in1)</text>
<text xml:space="preserve" text-anchor="start" x="11" y="-707.88" font-family="monospace" font-size="10.00">PA7:GPIO (motorR_in2)</text>
<text xml:space="preserve" text-anchor="start" x="11" y="-691.12" font-family="monospace" font-size="10.00">PB13:GPIO (motor_stby)</text>
<text xml:space="preserve" text-anchor="start" x="11" y="-674.38" font-family="monospace" font-size="10.00">PA2:PWM (servo_pan)</text>
<text xml:space="preserve" text-anchor="start" x="11" y="-657.62" font-family="monospace" font-size="10.00">PA8:QEI_A (encL_a)</text>
<text xml:space="preserve" text-anchor="start" x="11" y="-640.88" font-family="monospace" font-size="10.00">PA9:QEI_B (encL_b)</text>
<text xml:space="preserve" text-anchor="start" x="11" y="-624.12" font-family="monospace" font-size="10.00">PA10:QEI_A (encR_a)</text>
<text xml:space="preserve" text-anchor="start" x="11" y="-607.38" font-family="monospace" font-size="10.00">PA11:QEI_B (encR_b)</text>
<text xml:space="preserve" text-anchor="start" x="11" y="-590.62" font-family="monospace" font-size="10.00">PA12:UART_TX (k230_tx)</text>
<text xml:space="preserve" text-anchor="start" x="11" y="-573.88" font-family="monospace" font-size="10.00">PA13:UART_RX (k230_rx)</text>
<text xml:space="preserve" text-anchor="start" x="11" y="-557.12" font-family="monospace" font-size="10.00">PA14:UART_TX (log_tx)</text>
<text xml:space="preserve" text-anchor="start" x="11" y="-540.38" font-family="monospace" font-size="10.00">PB0:I2C_SDA (i2c_sda)</text>
<text xml:space="preserve" text-anchor="start" x="11" y="-523.62" font-family="monospace" font-size="10.00">PB1:I2C_SCL (i2c_scl)</text>
<text xml:space="preserve" text-anchor="start" x="11" y="-506.88" font-family="monospace" font-size="10.00">PB2:ADC (gray0)</text>
<text xml:space="preserve" text-anchor="start" x="11" y="-490.12" font-family="monospace" font-size="10.00">PB3:ADC (gray1)</text>
<text xml:space="preserve" text-anchor="start" x="11" y="-473.38" font-family="monospace" font-size="10.00">PB4:ADC (gray2)</text>
<text xml:space="preserve" text-anchor="start" x="11" y="-456.62" font-family="monospace" font-size="10.00">PB5:ADC (gray3)</text>
<text xml:space="preserve" text-anchor="start" x="11" y="-439.88" font-family="monospace" font-size="10.00">PB6:ADC (gray4)</text>
<text xml:space="preserve" text-anchor="start" x="11" y="-423.12" font-family="monospace" font-size="10.00">PB7:ADC (gray5)</text>
<text xml:space="preserve" text-anchor="start" x="11" y="-406.38" font-family="monospace" font-size="10.00">PB8:ADC (gray6)</text>
<text xml:space="preserve" text-anchor="start" x="11" y="-389.62" font-family="monospace" font-size="10.00">PB9:ADC (gray7)</text>
<text xml:space="preserve" text-anchor="start" x="11" y="-372.88" font-family="monospace" font-size="10.00">PB10:ADC (vbat_sense)</text>
<text xml:space="preserve" text-anchor="start" x="11" y="-356.12" font-family="monospace" font-size="10.00">PB14:GPIO (button_start)</text>
<text xml:space="preserve" text-anchor="start" x="11" y="-339.38" font-family="monospace" font-size="10.00">PB15:GPIO (button_mode)</text>
<text xml:space="preserve" text-anchor="start" x="11" y="-322.62" font-family="monospace" font-size="10.00">PA17:GPIO (buzzer)</text>
<text xml:space="preserve" text-anchor="start" x="11" y="-305.88" font-family="monospace" font-size="10.00">PA20:SWD_IO (swd_io)</text>
<text xml:space="preserve" text-anchor="start" x="11" y="-289.12" font-family="monospace" font-size="10.00">PA21:SWD_CLK (swd_clk)</text>
<polygon fill="none" stroke="black" points="8,-283.12 8,-821.12 158,-821.12 158,-283.12 8,-283.12"/>
</g>
<!-- m_TB6612_1 -->
<g id="node2" class="node">
<title>m_TB6612_1</title>
<polygon fill="lightyellow" stroke="none" points="262.75,-1017.38 262.75,-1034.12 314.75,-1034.12 314.75,-1017.38 262.75,-1017.38"/>
<text xml:space="preserve" text-anchor="start" x="264.75" y="-1023.62" font-family="monospace" font-weight="bold" font-size="10.00">TB6612#1</text>
<text xml:space="preserve" text-anchor="start" x="264.75" y="-1005.62" font-family="monospace" font-size="10.00">PWMA</text>
<text xml:space="preserve" text-anchor="start" x="264.75" y="-988.88" font-family="monospace" font-size="10.00">AIN1</text>
<text xml:space="preserve" text-anchor="start" x="264.75" y="-972.12" font-family="monospace" font-size="10.00">AIN2</text>
<text xml:space="preserve" text-anchor="start" x="264.75" y="-955.38" font-family="monospace" font-size="10.00">PWMB</text>
<text xml:space="preserve" text-anchor="start" x="264.75" y="-938.62" font-family="monospace" font-size="10.00">BIN1</text>
<text xml:space="preserve" text-anchor="start" x="264.75" y="-921.88" font-family="monospace" font-size="10.00">BIN2</text>
<text xml:space="preserve" text-anchor="start" x="264.75" y="-905.12" font-family="monospace" font-size="10.00">STBY</text>
<polygon fill="none" stroke="black" points="261.75,-899.12 261.75,-1035.12 315.75,-1035.12 315.75,-899.12 261.75,-899.12"/>
</g>
<!-- mcu&#45;&gt;m_TB6612_1 -->
<g id="edge1" class="edge">
<title>mcu:motorL_pwm&#45;&gt;m_TB6612_1:motorL_pwm</title>
<path fill="none" stroke="black" d="M158,-795C211.01,-795 144.53,-996.74 184,-1032.12 196.16,-1043.03 204.95,-1036.27 220.75,-1032.12 236.56,-1027.97 239.92,-1016.19 250.61,-1011.24"/>
<polygon fill="black" stroke="black" points="251.15,-1014.7 260.27,-1009.3 249.77,-1007.84 251.15,-1014.7"/>
<text xml:space="preserve" text-anchor="middle" x="202.38" y="-1040.73" font-family="monospace" font-size="9.00">PWM</text>
</g>
<!-- mcu&#45;&gt;m_TB6612_1 -->
<g id="edge2" class="edge">
<title>mcu:motorL_in1&#45;&gt;m_TB6612_1:motorL_in1</title>
<path fill="none" stroke="black" d="M158,-778.25C207.2,-778.25 147.22,-965.44 184,-998.12 206.97,-1018.54 223.09,-998.13 250.61,-993.24"/>
<polygon fill="black" stroke="black" points="250.59,-996.76 260.24,-992.38 249.97,-989.79 250.59,-996.76"/>
<text xml:space="preserve" text-anchor="middle" x="202.38" y="-1009.73" font-family="monospace" font-size="9.00">GPIO</text>
</g>
<!-- mcu&#45;&gt;m_TB6612_1 -->
<g id="edge3" class="edge">
<title>mcu:motorL_in2&#45;&gt;m_TB6612_1:motorL_in2</title>
<path fill="none" stroke="black" d="M158,-761.5C203.4,-761.5 152.18,-931.74 184,-964.12 205.7,-986.21 222.59,-978.07 250.49,-975.95"/>
<polygon fill="black" stroke="black" points="250.38,-979.45 260.24,-975.56 250.11,-972.46 250.38,-979.45"/>
<text xml:space="preserve" text-anchor="middle" x="202.38" y="-981.87" font-family="monospace" font-size="9.00">GPIO</text>
</g>
<!-- mcu&#45;&gt;m_TB6612_1 -->
<g id="edge4" class="edge">
<title>mcu:motorR_pwm&#45;&gt;m_TB6612_1:motorR_pwm</title>
<path fill="none" stroke="black" d="M158,-744.75C199.6,-744.75 157.89,-897.75 184,-930.12 193.62,-942.05 228.31,-953.95 250.3,-957.61"/>
<polygon fill="black" stroke="black" points="249.95,-961.09 260.24,-958.6 250.64,-954.12 249.95,-961.09"/>
<text xml:space="preserve" text-anchor="middle" x="202.38" y="-952.51" font-family="monospace" font-size="9.00">PWM</text>
</g>
<!-- mcu&#45;&gt;m_TB6612_1 -->
<g id="edge5" class="edge">
<title>mcu:motorR_in1&#45;&gt;m_TB6612_1:motorR_in1</title>
<path fill="none" stroke="black" d="M158,-728C195.81,-728 162.49,-865.03 184,-896.12 194.67,-911.55 204.58,-907.36 220.75,-916.88 235.28,-925.43 239.1,-936.13 250.57,-940.26"/>
<polygon fill="black" stroke="black" points="249.84,-943.69 260.25,-941.77 250.91,-936.77 249.84,-943.69"/>
<text xml:space="preserve" text-anchor="middle" x="202.38" y="-919.58" font-family="monospace" font-size="9.00">GPIO</text>
</g>
<!-- mcu&#45;&gt;m_TB6612_1 -->
<g id="edge6" class="edge">
<title>mcu:motorR_in2&#45;&gt;m_TB6612_1:motorR_in2</title>
<path fill="none" stroke="black" d="M158,-711.25C192.02,-711.25 164.41,-834.31 184,-862.12 194.8,-877.46 205.91,-871.41 220.75,-882.88 237.92,-896.15 236.8,-916.5 250.79,-923.1"/>
<polygon fill="black" stroke="black" points="249.78,-926.47 260.26,-924.96 251.12,-919.6 249.78,-926.47"/>
<text xml:space="preserve" text-anchor="middle" x="202.38" y="-885.58" font-family="monospace" font-size="9.00">GPIO</text>
</g>
<!-- mcu&#45;&gt;m_TB6612_1 -->
<g id="edge7" class="edge">
<title>mcu:motor_stby&#45;&gt;m_TB6612_1:motor_stby</title>
<path fill="none" stroke="black" d="M158,-694.5C218.5,-694.5 148.63,-779.04 184,-828.12 194.97,-843.34 207.92,-835.2 220.75,-848.88 239.66,-869.03 232.6,-898.58 250.65,-906.49"/>
<polygon fill="black" stroke="black" points="249.8,-909.89 260.26,-908.23 251.04,-903 249.8,-909.89"/>
<text xml:space="preserve" text-anchor="middle" x="202.38" y="-851.58" font-family="monospace" font-size="9.00">GPIO</text>
</g>
<!-- m_servo -->
<g id="node3" class="node">
<title>m_servo</title>
<polygon fill="lightyellow" stroke="none" points="271.75,-855.12 271.75,-871.88 305.75,-871.88 305.75,-855.12 271.75,-855.12"/>
<text xml:space="preserve" text-anchor="start" x="273.75" y="-861.38" font-family="monospace" font-weight="bold" font-size="10.00">servo</text>
<text xml:space="preserve" text-anchor="start" x="273.75" y="-843.38" font-family="monospace" font-size="10.00">SIG</text>
<polygon fill="none" stroke="black" points="270.75,-837.38 270.75,-872.88 306.75,-872.88 306.75,-837.38 270.75,-837.38"/>
</g>
<!-- mcu&#45;&gt;m_servo -->
<g id="edge8" class="edge">
<title>mcu:servo_pan&#45;&gt;m_servo:servo_pan</title>
<path fill="none" stroke="black" d="M158,-677.75C210.56,-677.75 153.48,-750.33 184,-793.12 184.66,-794.04 238.45,-827.55 261,-841.12"/>
<polygon fill="black" stroke="black" points="259.03,-844.03 269.44,-845.99 262.53,-837.96 259.03,-844.03"/>
<text xml:space="preserve" text-anchor="middle" x="202.38" y="-818.31" font-family="monospace" font-size="9.00">PWM</text>
</g>
<!-- m_encoderL -->
<g id="node4" class="node">
<title>m_encoderL</title>
<polygon fill="lightyellow" stroke="none" points="262.75,-793.5 262.75,-810.25 314.75,-810.25 314.75,-793.5 262.75,-793.5"/>
<text xml:space="preserve" text-anchor="start" x="264.75" y="-799.75" font-family="monospace" font-weight="bold" font-size="10.00">encoderL</text>
<text xml:space="preserve" text-anchor="start" x="264.75" y="-781.75" font-family="monospace" font-size="10.00">A</text>
<text xml:space="preserve" text-anchor="start" x="264.75" y="-765" font-family="monospace" font-size="10.00">B</text>
<polygon fill="none" stroke="black" points="261.75,-759 261.75,-811.25 315.75,-811.25 315.75,-759 261.75,-759"/>
</g>
<!-- mcu&#45;&gt;m_encoderL -->
<g id="edge9" class="edge">
<title>mcu:encL_a&#45;&gt;m_encoderL:encL_a</title>
<path fill="none" stroke="black" d="M158,-661C203.55,-661 152.69,-727.05 184,-760.12 194.38,-771.09 228.75,-781.12 250.45,-784.17"/>
<polygon fill="black" stroke="black" points="249.98,-787.65 260.24,-785 250.57,-780.67 249.98,-787.65"/>
<text xml:space="preserve" text-anchor="middle" x="202.38" y="-780.27" font-family="monospace" font-size="9.00">QEI_A</text>
</g>
<!-- mcu&#45;&gt;m_encoderL -->
<g id="edge10" class="edge">
<title>mcu:encL_b&#45;&gt;m_encoderL:encL_b</title>
<path fill="none" stroke="black" d="M158,-644.25C194.91,-644.25 160.76,-694.45 184,-723.12 186.5,-726.2 230.78,-752.85 251.5,-763.76"/>
<polygon fill="black" stroke="black" points="249.82,-766.83 260.37,-767.75 252.69,-760.45 249.82,-766.83"/>
<text xml:space="preserve" text-anchor="middle" x="202.38" y="-748.61" font-family="monospace" font-size="9.00">QEI_B</text>
</g>
<!-- m_encoderR -->
<g id="node5" class="node">
<title>m_encoderR</title>
<polygon fill="lightyellow" stroke="none" points="262.75,-715.5 262.75,-732.25 314.75,-732.25 314.75,-715.5 262.75,-715.5"/>
<text xml:space="preserve" text-anchor="start" x="264.75" y="-721.75" font-family="monospace" font-weight="bold" font-size="10.00">encoderR</text>
<text xml:space="preserve" text-anchor="start" x="264.75" y="-703.75" font-family="monospace" font-size="10.00">A</text>
<text xml:space="preserve" text-anchor="start" x="264.75" y="-687" font-family="monospace" font-size="10.00">B</text>
<polygon fill="none" stroke="black" points="261.75,-681 261.75,-733.25 315.75,-733.25 315.75,-681 261.75,-681"/>
</g>
<!-- mcu&#45;&gt;m_encoderR -->
<g id="edge11" class="edge">
<title>mcu:encR_a&#45;&gt;m_encoderR:encR_a</title>
<path fill="none" stroke="black" d="M158,-627.5C188.96,-627.5 160.11,-672.43 184,-692.12 208.08,-711.98 222.92,-708.42 250.51,-707.36"/>
<polygon fill="black" stroke="black" points="250.31,-710.86 260.24,-707.16 250.17,-703.86 250.31,-710.86"/>
<text xml:space="preserve" text-anchor="middle" x="202.38" y="-710.72" font-family="monospace" font-size="9.00">QEI_A</text>
</g>
<!-- mcu&#45;&gt;m_encoderR -->
<g id="edge12" class="edge">
<title>mcu:encR_b&#45;&gt;m_encoderR:encR_b</title>
<path fill="none" stroke="black" d="M158,-610.75C178.6,-610.75 168.67,-635.36 184,-649.12 196.22,-660.1 228.96,-681.74 250.72,-688.38"/>
<polygon fill="black" stroke="black" points="249.8,-691.77 260.26,-690.11 251.04,-684.89 249.8,-691.77"/>
<text xml:space="preserve" text-anchor="middle" x="202.38" y="-676.3" font-family="monospace" font-size="9.00">QEI_B</text>
</g>
<!-- m_K230 -->
<g id="node6" class="node">
<title>m_K230</title>
<polygon fill="lightyellow" stroke="none" points="274.75,-637.5 274.75,-654.25 302.75,-654.25 302.75,-637.5 274.75,-637.5"/>
<text xml:space="preserve" text-anchor="start" x="276.75" y="-643.75" font-family="monospace" font-weight="bold" font-size="10.00">K230</text>
<text xml:space="preserve" text-anchor="start" x="276.75" y="-625.75" font-family="monospace" font-size="10.00">RXD</text>
<text xml:space="preserve" text-anchor="start" x="276.75" y="-609" font-family="monospace" font-size="10.00">TXD</text>
<polygon fill="none" stroke="black" points="273.75,-603 273.75,-655.25 303.75,-655.25 303.75,-603 273.75,-603"/>
</g>
<!-- mcu&#45;&gt;m_K230 -->
<g id="edge13" class="edge">
<title>mcu:k230_tx&#45;&gt;m_K230:k230_tx</title>
<path fill="none" stroke="black" d="M158,-594C175.69,-594 168.13,-616.32 184,-624.12 216.21,-639.97 230.74,-631.38 262.33,-629.47"/>
<polygon fill="black" stroke="black" points="262.35,-632.97 272.24,-629.17 262.14,-625.98 262.35,-632.97"/>
<text xml:space="preserve" text-anchor="middle" x="202.38" y="-636.2" font-family="monospace" font-size="9.00">UART_TX</text>
</g>
<!-- mcu&#45;&gt;m_K230 -->
<g id="edge14" class="edge">
<title>mcu:k230_rx&#45;&gt;m_K230:k230_rx</title>
<path fill="none" stroke="black" d="M158,-577.25C207.77,-577.25 218.52,-607.35 262.5,-611.82"/>
<polygon fill="black" stroke="black" points="262.08,-615.31 272.24,-612.3 262.42,-608.32 262.08,-615.31"/>
<text xml:space="preserve" text-anchor="middle" x="202.38" y="-599.62" font-family="monospace" font-size="9.00">UART_RX</text>
</g>
<!-- m_USB_TTL -->
<g id="node7" class="node">
<title>m_USB_TTL</title>
<polygon fill="lightyellow" stroke="none" points="265.75,-559.12 265.75,-575.88 311.75,-575.88 311.75,-559.12 265.75,-559.12"/>
<text xml:space="preserve" text-anchor="start" x="267.75" y="-565.38" font-family="monospace" font-weight="bold" font-size="10.00">USB&#45;TTL</text>
<text xml:space="preserve" text-anchor="start" x="267.75" y="-547.38" font-family="monospace" font-size="10.00">RXD</text>
<polygon fill="none" stroke="black" points="264.75,-541.38 264.75,-576.88 312.75,-576.88 312.75,-541.38 264.75,-541.38"/>
</g>
<!-- mcu&#45;&gt;m_USB_TTL -->
<g id="edge15" class="edge">
<title>mcu:log_tx&#45;&gt;m_USB_TTL:log_tx</title>
<path fill="none" stroke="black" d="M158,-560.5C185.96,-560.5 192.92,-558.79 220.75,-556.12 235.92,-554.67 242.16,-552.25 253.32,-551.23"/>
<polygon fill="black" stroke="black" points="253.39,-554.73 263.24,-550.81 253.1,-547.74 253.39,-554.73"/>
<text xml:space="preserve" text-anchor="middle" x="202.38" y="-562.43" font-family="monospace" font-size="9.00">UART_TX</text>
</g>
<!-- m_OLED_IMU -->
<g id="node8" class="node">
<title>m_OLED_IMU</title>
<polygon fill="lightyellow" stroke="none" points="262.75,-497.5 262.75,-514.25 314.75,-514.25 314.75,-497.5 262.75,-497.5"/>
<text xml:space="preserve" text-anchor="start" x="264.75" y="-503.75" font-family="monospace" font-weight="bold" font-size="10.00">OLED+IMU</text>
<text xml:space="preserve" text-anchor="start" x="264.75" y="-485.75" font-family="monospace" font-size="10.00">SDA</text>
<text xml:space="preserve" text-anchor="start" x="264.75" y="-469" font-family="monospace" font-size="10.00">SCL</text>
<polygon fill="none" stroke="black" points="261.75,-463 261.75,-515.25 315.75,-515.25 315.75,-463 261.75,-463"/>
</g>
<!-- mcu&#45;&gt;m_OLED_IMU -->
<g id="edge16" class="edge">
<title>mcu:i2c_sda&#45;&gt;m_OLED_IMU:i2c_sda</title>
<path fill="none" stroke="black" d="M158,-543.75C187.5,-543.75 194.93,-536.39 220.75,-522.12 237.23,-513.02 238.59,-497.2 250.68,-491.37"/>
<polygon fill="black" stroke="black" points="251.16,-494.84 260.27,-489.43 249.77,-487.98 251.16,-494.84"/>
<text xml:space="preserve" text-anchor="middle" x="202.38" y="-543.29" font-family="monospace" font-size="9.00">I2C_SDA</text>
</g>
<!-- mcu&#45;&gt;m_OLED_IMU -->
<g id="edge17" class="edge">
<title>mcu:i2c_scl&#45;&gt;m_OLED_IMU:i2c_scl</title>
<path fill="none" stroke="black" d="M158,-527C172.09,-527 171.8,-515.92 184,-508.88 190.62,-505.05 230.37,-483.95 250.85,-475.69"/>
<polygon fill="black" stroke="black" points="251.75,-479.07 260.3,-472.82 249.72,-472.38 251.75,-479.07"/>
<text xml:space="preserve" text-anchor="middle" x="202.38" y="-511.57" font-family="monospace" font-size="9.00">I2C_SCL</text>
</g>
<!-- m_8ch_grayscale -->
<g id="node9" class="node">
<title>m_8ch_grayscale</title>
<polygon fill="lightyellow" stroke="none" points="247.75,-418.75 247.75,-435.5 329.75,-435.5 329.75,-418.75 247.75,-418.75"/>
<text xml:space="preserve" text-anchor="start" x="249.75" y="-425" font-family="monospace" font-weight="bold" font-size="10.00">8ch&#45;grayscale</text>
<text xml:space="preserve" text-anchor="start" x="249.75" y="-407" font-family="monospace" font-size="10.00">CH0</text>
<text xml:space="preserve" text-anchor="start" x="249.75" y="-390.25" font-family="monospace" font-size="10.00">CH1</text>
<text xml:space="preserve" text-anchor="start" x="249.75" y="-373.5" font-family="monospace" font-size="10.00">CH2</text>
<text xml:space="preserve" text-anchor="start" x="249.75" y="-356.75" font-family="monospace" font-size="10.00">CH3</text>
<text xml:space="preserve" text-anchor="start" x="249.75" y="-340" font-family="monospace" font-size="10.00">CH4</text>
<text xml:space="preserve" text-anchor="start" x="249.75" y="-323.25" font-family="monospace" font-size="10.00">CH5</text>
<text xml:space="preserve" text-anchor="start" x="249.75" y="-306.5" font-family="monospace" font-size="10.00">CH6</text>
<text xml:space="preserve" text-anchor="start" x="249.75" y="-289.75" font-family="monospace" font-size="10.00">CH7</text>
<polygon fill="none" stroke="black" points="246.75,-283.75 246.75,-436.5 330.75,-436.5 330.75,-283.75 246.75,-283.75"/>
</g>
<!-- mcu&#45;&gt;m_8ch_grayscale -->
<g id="edge18" class="edge">
<title>mcu:gray0&#45;&gt;m_8ch_grayscale:gray0</title>
<path fill="none" stroke="black" d="M158,-510.25C177.51,-510.25 169.4,-487.82 184,-474.88 198.03,-462.43 207.34,-467.24 220.75,-454.12 233.38,-441.77 228.34,-422.02 236.32,-413.97"/>
<polygon fill="black" stroke="black" points="237,-417.43 245.32,-410.87 234.72,-410.81 237,-417.43"/>
<text xml:space="preserve" text-anchor="middle" x="202.38" y="-477.57" font-family="monospace" font-size="9.00">ADC</text>
</g>
<!-- mcu&#45;&gt;m_8ch_grayscale -->
<g id="edge19" class="edge">
<title>mcu:gray1&#45;&gt;m_8ch_grayscale:gray1</title>
<path fill="none" stroke="black" d="M158,-493.5C184.09,-493.5 166.07,-459.82 184,-440.88 196.89,-427.25 205.87,-431.54 220.75,-420.12 229.75,-413.22 230.87,-403.28 236.05,-397.75"/>
<polygon fill="black" stroke="black" points="237.26,-401.03 245.34,-394.17 234.75,-394.5 237.26,-401.03"/>
<text xml:space="preserve" text-anchor="middle" x="202.38" y="-443.57" font-family="monospace" font-size="9.00">ADC</text>
</g>
<!-- mcu&#45;&gt;m_8ch_grayscale -->
<g id="edge20" class="edge">
<title>mcu:gray2&#45;&gt;m_8ch_grayscale:gray2</title>
<path fill="none" stroke="black" d="M158,-476.75C191.14,-476.75 161.64,-431.33 184,-406.88 188.01,-402.49 218.43,-387.09 235.76,-380.22"/>
<polygon fill="black" stroke="black" points="236.76,-383.58 245.3,-377.32 234.72,-376.88 236.76,-383.58"/>
<text xml:space="preserve" text-anchor="middle" x="202.38" y="-409.57" font-family="monospace" font-size="9.00">ADC</text>
</g>
<!-- mcu&#45;&gt;m_8ch_grayscale -->
<g id="edge21" class="edge">
<title>mcu:gray3&#45;&gt;m_8ch_grayscale:gray3</title>
<path fill="none" stroke="black" d="M158,-460C198.41,-460 154.18,-400.14 184,-372.88 201.97,-356.45 214.29,-358.8 235.29,-359.82"/>
<polygon fill="black" stroke="black" points="235.15,-363.31 245.24,-360.08 235.33,-356.32 235.15,-363.31"/>
<text xml:space="preserve" text-anchor="middle" x="202.38" y="-375.57" font-family="monospace" font-size="9.00">ADC</text>
</g>
<!-- mcu&#45;&gt;m_8ch_grayscale -->
<g id="edge22" class="edge">
<title>mcu:gray4&#45;&gt;m_8ch_grayscale:gray4</title>
<path fill="none" stroke="black" d="M158,-443.25C203.65,-443.25 147.97,-371.92 184,-343.88 202.83,-329.22 214.95,-339.27 235.53,-342.48"/>
<polygon fill="black" stroke="black" points="235,-345.95 245.24,-343.26 235.55,-338.98 235,-345.95"/>
<text xml:space="preserve" text-anchor="middle" x="202.38" y="-346.57" font-family="monospace" font-size="9.00">ADC</text>
</g>
<!-- mcu&#45;&gt;m_8ch_grayscale -->
<g id="edge23" class="edge">
<title>mcu:gray5&#45;&gt;m_8ch_grayscale:gray5</title>
<path fill="none" stroke="black" d="M158,-426.5C206.35,-426.5 145.95,-350.7 184,-320.88 202.86,-306.1 214.88,-320.81 235.49,-325.37"/>
<polygon fill="black" stroke="black" points="234.92,-328.83 245.25,-326.46 235.69,-321.87 234.92,-328.83"/>
<text xml:space="preserve" text-anchor="middle" x="202.38" y="-323.57" font-family="monospace" font-size="9.00">ADC</text>
</g>
<!-- mcu&#45;&gt;m_8ch_grayscale -->
<g id="edge24" class="edge">
<title>mcu:gray6&#45;&gt;m_8ch_grayscale:gray6</title>
<path fill="none" stroke="black" d="M158,-409.75C208.61,-409.75 144.33,-330.32 184,-298.88 196.8,-288.73 204.74,-295.63 220.75,-298.88 228.24,-300.39 231.6,-304.15 235.92,-306.85"/>
<polygon fill="black" stroke="black" points="234.72,-310.15 245.29,-309.47 236.6,-303.4 234.72,-310.15"/>
<text xml:space="preserve" text-anchor="middle" x="202.38" y="-301.57" font-family="monospace" font-size="9.00">ADC</text>
</g>
<!-- mcu&#45;&gt;m_8ch_grayscale -->
<g id="edge25" class="edge">
<title>mcu:gray7&#45;&gt;m_8ch_grayscale:gray7</title>
<path fill="none" stroke="black" d="M158,-393C210.46,-393 143.03,-310.63 184,-277.88 196.76,-267.68 204.99,-273.59 220.75,-277.88 228.83,-280.07 231.73,-285.48 236.05,-289.23"/>
<polygon fill="black" stroke="black" points="234.73,-292.47 245.33,-292.61 237.13,-285.9 234.73,-292.47"/>
<text xml:space="preserve" text-anchor="middle" x="202.38" y="-280.57" font-family="monospace" font-size="9.00">ADC</text>
</g>
<!-- m_divider -->
<g id="node10" class="node">
<title>m_divider</title>
<polygon fill="lightyellow" stroke="none" points="265.75,-240.12 265.75,-256.88 311.75,-256.88 311.75,-240.12 265.75,-240.12"/>
<text xml:space="preserve" text-anchor="start" x="267.75" y="-246.38" font-family="monospace" font-weight="bold" font-size="10.00">divider</text>
<text xml:space="preserve" text-anchor="start" x="267.75" y="-228.38" font-family="monospace" font-size="10.00">?</text>
<polygon fill="none" stroke="black" points="264.75,-222.38 264.75,-257.88 312.75,-257.88 312.75,-222.38 264.75,-222.38"/>
</g>
<!-- mcu&#45;&gt;m_divider -->
<g id="edge26" class="edge">
<title>mcu:vbat_sense&#45;&gt;m_divider:vbat_sense</title>
<path fill="none" stroke="black" d="M158,-376.25C212.3,-376.25 147.31,-296.91 184,-256.88 206.72,-232.09 223.33,-231.54 253.49,-231.7"/>
<polygon fill="black" stroke="black" points="253.22,-235.2 263.24,-231.74 253.25,-228.2 253.22,-235.2"/>
<text xml:space="preserve" text-anchor="middle" x="202.38" y="-259.57" font-family="monospace" font-size="9.00">ADC</text>
</g>
<!-- m_button -->
<g id="node11" class="node">
<title>m_button</title>
<polygon fill="lightyellow" stroke="none" points="268.75,-178.5 268.75,-195.25 308.75,-195.25 308.75,-178.5 268.75,-178.5"/>
<text xml:space="preserve" text-anchor="start" x="270.75" y="-184.75" font-family="monospace" font-weight="bold" font-size="10.00">button</text>
<text xml:space="preserve" text-anchor="start" x="270.75" y="-166.75" font-family="monospace" font-size="10.00">START</text>
<text xml:space="preserve" text-anchor="start" x="270.75" y="-150" font-family="monospace" font-size="10.00">MODE</text>
<polygon fill="none" stroke="black" points="267.75,-144 267.75,-196.25 309.75,-196.25 309.75,-144 267.75,-144"/>
</g>
<!-- mcu&#45;&gt;m_button -->
<g id="edge27" class="edge">
<title>mcu:button_start&#45;&gt;m_button:button_start</title>
<path fill="none" stroke="black" d="M158,-359.5C189.78,-359.5 165.71,-244.86 184,-218.88 206.46,-186.96 221.62,-172.85 256.32,-170.49"/>
<polygon fill="black" stroke="black" points="256.35,-173.99 266.24,-170.17 256.13,-166.99 256.35,-173.99"/>
<text xml:space="preserve" text-anchor="middle" x="202.38" y="-221.57" font-family="monospace" font-size="9.00">GPIO</text>
</g>
<!-- mcu&#45;&gt;m_button -->
<g id="edge28" class="edge">
<title>mcu:button_mode&#45;&gt;m_button:button_mode</title>
<path fill="none" stroke="black" d="M158,-342.75C197.95,-342.75 155.63,-193 184,-164.88 207.87,-141.21 225.99,-150.68 256.44,-152.94"/>
<polygon fill="black" stroke="black" points="256.11,-156.43 266.24,-153.32 256.38,-149.44 256.11,-156.43"/>
<text xml:space="preserve" text-anchor="middle" x="202.38" y="-167.57" font-family="monospace" font-size="9.00">GPIO</text>
</g>
<!-- m_buzzer -->
<g id="node12" class="node">
<title>m_buzzer</title>
<polygon fill="lightyellow" stroke="none" points="268.75,-100.12 268.75,-116.88 308.75,-116.88 308.75,-100.12 268.75,-100.12"/>
<text xml:space="preserve" text-anchor="start" x="270.75" y="-106.38" font-family="monospace" font-weight="bold" font-size="10.00">buzzer</text>
<text xml:space="preserve" text-anchor="start" x="270.75" y="-88.38" font-family="monospace" font-size="10.00">SIG</text>
<polygon fill="none" stroke="black" points="267.75,-82.38 267.75,-117.88 309.75,-117.88 309.75,-82.38 267.75,-82.38"/>
</g>
<!-- mcu&#45;&gt;m_buzzer -->
<g id="edge29" class="edge">
<title>mcu:buzzer&#45;&gt;m_buzzer:buzzer</title>
<path fill="none" stroke="black" d="M158,-326C201.08,-326 158.98,-168.95 184,-133.88 205.93,-103.14 222.68,-93.51 256.63,-91.98"/>
<polygon fill="black" stroke="black" points="256.31,-95.49 266.24,-91.78 256.17,-88.49 256.31,-95.49"/>
<text xml:space="preserve" text-anchor="middle" x="202.38" y="-136.57" font-family="monospace" font-size="9.00">GPIO</text>
</g>
<!-- m_debugger -->
<g id="node13" class="node">
<title>m_debugger</title>
<polygon fill="lightyellow" stroke="none" points="262.75,-38.5 262.75,-55.25 314.75,-55.25 314.75,-38.5 262.75,-38.5"/>
<text xml:space="preserve" text-anchor="start" x="264.75" y="-44.75" font-family="monospace" font-weight="bold" font-size="10.00">debugger</text>
<text xml:space="preserve" text-anchor="start" x="264.75" y="-26.75" font-family="monospace" font-size="10.00">SWDIO</text>
<text xml:space="preserve" text-anchor="start" x="264.75" y="-10" font-family="monospace" font-size="10.00">SWCLK</text>
<polygon fill="none" stroke="black" points="261.75,-4 261.75,-56.25 315.75,-56.25 315.75,-4 261.75,-4"/>
</g>
<!-- mcu&#45;&gt;m_debugger -->
<g id="edge30" class="edge">
<title>mcu:swd_io&#45;&gt;m_debugger:swd_io</title>
<path fill="none" stroke="black" d="M158,-309.25C208.19,-309.25 158.35,-128.02 184,-84.88 203.57,-51.95 216.81,-33.74 250.58,-30.61"/>
<polygon fill="black" stroke="black" points="250.4,-34.12 260.24,-30.19 250.1,-27.13 250.4,-34.12"/>
<text xml:space="preserve" text-anchor="middle" x="202.38" y="-87.58" font-family="monospace" font-size="9.00">SWD_IO</text>
</g>
<!-- mcu&#45;&gt;m_debugger -->
<g id="edge31" class="edge">
<title>mcu:swd_clk&#45;&gt;m_debugger:swd_clk</title>
<path fill="none" stroke="black" d="M158,-292.5C217.53,-292.5 143.23,-69.26 184,-25.88 205.25,-3.26 222.43,-10.92 250.45,-12.95"/>
<polygon fill="black" stroke="black" points="250.11,-16.44 260.24,-13.32 250.38,-9.44 250.11,-16.44"/>
<text xml:space="preserve" text-anchor="middle" x="202.38" y="-28.57" font-family="monospace" font-size="9.00">SWD_CLK</text>
</g>
</g>
</svg>
